<?xml version="1.0" encoding="UTF-8"?>
<svg width="93px" height="82px" viewBox="0 0 93 82" version="1.1" xmlns="http://www.w3.org/2000/svg" xmlns:xlink="http://www.w3.org/1999/xlink">
    <!-- Generator: Sketch 54.1 (76490) - https://sketchapp.com -->
    <title>Icon/Map/Pin/Selected</title>
    <desc>Created with Sketch.</desc>
    <defs>
        <filter x="-11.1%" y="-81.8%" width="122.2%" height="263.6%" filterUnits="objectBoundingBox" id="filter-1">
            <feGaussianBlur stdDeviation="3" in="SourceGraphic"></feGaussianBlur>
        </filter>
    </defs>
    <g id="Page-1" stroke="none" stroke-width="1" fill="none" fill-rule="evenodd">
        <g id="Home" transform="translate(-72.000000, -3394.000000)">
            <g id="Map" transform="translate(0.000000, 2904.000000)">
                <g id="Icon/Map/Pin/Selected" transform="translate(78.000000, 490.000000)">
                    <polygon id="Rectangle" fill="#000000" opacity="0.230119978" filter="url(#filter-1)" points="-5.17086374e-14 63.7155963 81 63.7155963 64.1506489 71.5465222 40.0757525 74.7155963 14.4869565 71.5465222"></polygon>
                    <g id="Group-3" transform="translate(10.000000, 0.000000)">
                        <polygon id="Rectangle" fill="#FFFFFF" points="0 0.71559633 61 0.71559633 61 52.4599572 29.4511104 74.7155963 0 52.4599572"></polygon>
                        <path d="M7,7.71559633 L55,7.71559633 L55,32.082263 L7,32.082263 L7,7.71559633 Z M19.7237589,30.7344358 L22.1679861,23.1460556 L20.5636256,23.1460556 L19.4438034,26.7880432 L18.8731248,29.1689247 L18.8408222,29.1689247 L18.2486086,26.7880432 L17.1287864,23.1460556 L15.4705882,23.1460556 L17.8932804,30.7344358 L19.7237589,30.7344358 Z M25.8935483,30.7344358 L25.8935483,29.4189716 L24.9244714,29.4189716 L24.9244714,24.4615198 L25.8935483,24.4615198 L25.8935483,23.1460556 L22.3187314,23.1460556 L22.3187314,24.4615198 L23.2878083,24.4615198 L23.2878083,29.4189716 L22.3187314,29.4189716 L22.3187314,30.7344358 L25.8935483,30.7344358 Z M31.4926591,30.7344358 L32.8709017,30.7344358 L32.8709017,26.5053815 L29.9098335,26.5053815 L29.9098335,27.8860753 L31.3096112,27.8860753 L31.3096112,28.2665815 C31.3096112,29.0058507 30.6527925,29.3972284 29.8344609,29.3972284 C28.8223139,29.3972284 28.1654952,28.8101618 28.1654952,27.5490556 L28.1654952,26.3314358 C28.1654952,25.0703297 28.8223139,24.483263 29.8344609,24.483263 C30.7066301,24.483263 31.1696335,24.9616136 31.3957514,25.5486803 L32.730924,24.7767963 C32.1710129,23.6135346 31.1696335,23.0155963 29.8344609,23.0155963 C27.7993995,23.0155963 26.4319243,24.4180334 26.4319243,26.9728605 C26.4319243,29.5168161 27.7886319,30.8648951 29.5114353,30.8648951 C30.6420249,30.8648951 31.3311463,30.2887 31.4388215,29.5276877 L31.4926591,29.5276877 L31.4926591,30.7344358 Z M36.9410246,30.8648951 C38.9330159,30.8648951 40.2466534,29.5168161 40.2466534,26.9402457 C40.2466534,24.3636753 38.9330159,23.0155963 36.9410246,23.0155963 C34.9490332,23.0155963 33.6353957,24.3636753 33.6353957,26.9402457 C33.6353957,29.5168161 34.9490332,30.8648951 36.9410246,30.8648951 Z M36.9410246,29.3972284 C35.9611802,29.3972284 35.3689665,28.7123173 35.3689665,27.5055692 L35.3689665,26.3749223 C35.3689665,25.1681741 35.9611802,24.483263 36.9410246,24.483263 C37.9208689,24.483263 38.5130826,25.1681741 38.5130826,26.3749223 L38.5130826,27.5055692 C38.5130826,28.7123173 37.9208689,29.3972284 36.9410246,29.3972284 Z M42.7124157,27.951305 L43.8860754,27.951305 L45.199713,30.7344358 L47.019424,30.7344358 L45.5442736,27.7556161 C46.4595129,27.4077247 46.9117488,26.5923544 46.9117488,25.5704235 C46.9117488,24.1245 46.0288121,23.1460556 44.6398019,23.1460556 L41.0757525,23.1460556 L41.0757525,30.7344358 L42.7124157,30.7344358 L42.7124157,27.951305 Z M42.7124157,26.5597395 L42.7124157,24.5811074 L44.435219,24.5811074 C44.9197574,24.5811074 45.221248,24.842026 45.221248,25.3312482 L45.221248,25.8095988 C45.221248,26.298821 44.9197574,26.5597395 44.435219,26.5597395 L42.7124157,26.5597395 Z M10.3556561,41.7155963 C8.31402715,41.7155963 7,40.3970368 7,37.8038696 C7,35.2107025 8.31402715,33.782263 10.3556561,33.782263 C11.7457014,33.782263 12.6361991,34.3536388 13.1900452,35.5842944 L11.7674208,36.3314781 C11.5719457,35.6941744 11.1701357,35.2656425 10.3556561,35.2656425 C9.38914027,35.2656425 8.74841629,35.9249223 8.74841629,37.1336019 L8.74841629,38.3642575 C8.74841629,39.5729371 9.38914027,40.2322168 10.3556561,40.2322168 C11.1701357,40.2322168 11.6371041,39.715781 11.8651584,39.0894652 L13.2117647,39.8806009 C12.6470588,41.0453286 11.7457014,41.7155963 10.3556561,41.7155963 Z M15.4869565,39.0137816 L15.4869565,41.7155963 L13.7764706,41.7155963 L13.7764706,34.3489297 L17.5012788,34.3489297 C18.9529412,34.3489297 19.8757033,35.2987864 19.8757033,36.7024636 C19.8757033,37.6945362 19.4030691,38.4860834 18.4465473,38.8238103 L19.9882353,41.7155963 L18.086445,41.7155963 L16.713555,39.0137816 L15.4869565,39.0137816 Z M15.4869565,37.6628743 L17.287468,37.6628743 C17.7938619,37.6628743 18.1089514,37.4095791 18.1089514,36.9346508 L18.1089514,36.4702764 C18.1089514,35.995348 17.7938619,35.7420529 17.287468,35.7420529 L15.4869565,35.7420529 L15.4869565,37.6628743 Z M23.3764706,41.7155963 C21.3347001,41.7155963 19.9882353,40.3530848 19.9882353,37.7489297 C19.9882353,35.1447745 21.3347001,33.782263 23.3764706,33.782263 C25.418241,33.782263 26.7647059,35.1447745 26.7647059,37.7489297 C26.7647059,40.3530848 25.418241,41.7155963 23.3764706,41.7155963 Z M23.3764706,40.2322168 C24.3808009,40.2322168 24.9878138,39.5399731 24.9878138,38.3203055 L24.9878138,37.1775539 C24.9878138,35.9578863 24.3808009,35.2656425 23.3764706,35.2656425 C22.3721403,35.2656425 21.7651274,35.9578863 21.7651274,37.1775539 L21.7651274,38.3203055 C21.7651274,39.5399731 22.3721403,40.2322168 23.3764706,40.2322168 Z M30.1161354,41.7155963 C28.8331909,41.7155963 27.9603681,41.1991605 27.3294118,40.4739527 L28.3810056,39.3641651 C28.8752547,39.9465289 29.506211,40.2432048 30.2212948,40.2432048 C30.9994742,40.2432048 31.378048,39.8806009 31.378048,39.3202131 C31.378048,38.9026693 31.209793,38.5950054 30.526257,38.4961134 L29.8006572,38.3972214 C28.2548143,38.1884495 27.5502465,37.3973138 27.5502465,36.1117182 C27.5502465,34.7382187 28.5808084,33.782263 30.3054223,33.782263 C31.4095958,33.782263 32.2508709,34.1668429 32.8502793,34.8590866 L31.7881696,35.9798623 C31.4411436,35.5513304 30.9679264,35.2546545 30.2107788,35.2546545 C29.495695,35.2546545 29.1486691,35.5403424 29.1486691,36.0018383 C29.1486691,36.5292621 29.4115675,36.727046 30.0214919,36.825938 L30.7470917,36.9468059 C32.2508709,37.1995298 32.9764706,37.9027616 32.9764706,39.2213212 C32.9764706,40.6937127 31.9459086,41.7155963 30.1161354,41.7155963 Z M36.3279001,41.7155963 C35.0449556,41.7155963 34.1721328,41.1991605 33.5411765,40.4739527 L34.5927703,39.3641651 C35.0870194,39.9465289 35.7179757,40.2432048 36.4330595,40.2432048 C37.2112389,40.2432048 37.5898127,39.8806009 37.5898127,39.3202131 C37.5898127,38.9026693 37.4215577,38.5950054 36.7380217,38.4961134 L36.012422,38.3972214 C34.466579,38.1884495 33.7620112,37.3973138 33.7620112,36.1117182 C33.7620112,34.7382187 34.7925731,33.782263 36.517187,33.782263 C37.6213605,33.782263 38.4626356,34.1668429 39.062044,34.8590866 L37.9999343,35.9798623 C37.6529083,35.5513304 37.1796911,35.2546545 36.4225435,35.2546545 C35.7074597,35.2546545 35.3604338,35.5403424 35.3604338,36.0018383 C35.3604338,36.5292621 35.6233322,36.727046 36.2332567,36.825938 L36.9588564,36.9468059 C38.4626356,37.1995298 39.1882353,37.9027616 39.1882353,39.2213212 C39.1882353,40.6937127 38.1576733,41.7155963 36.3279001,41.7155963 Z M41.4214458,41.7155963 L39.7529412,41.7155963 L39.7529412,34.3489297 L44.8352941,34.3489297 L44.8352941,35.7737148 L41.4214458,35.7737148 L41.4214458,37.3779172 L44.3303519,37.3779172 L44.3303519,38.7921484 L41.4214458,38.7921484 L41.4214458,41.7155963 Z M48.7882353,41.7155963 L45.4,41.7155963 L45.4,40.4385667 L46.3184975,40.4385667 L46.3184975,35.6259593 L45.4,35.6259593 L45.4,34.3489297 L48.7882353,34.3489297 L48.7882353,35.6259593 L47.8697378,35.6259593 L47.8697378,40.4385667 L48.7882353,40.4385667 L48.7882353,41.7155963 Z M55,35.7737148 L52.9862375,35.7737148 L52.9862375,41.7155963 L51.3667037,41.7155963 L51.3667037,35.7737148 L49.3529412,35.7737148 L49.3529412,34.3489297 L55,34.3489297 L55,35.7737148 Z" id="Combined-Shape" fill="#FFD100"></path>
                    </g>
                </g>
            </g>
        </g>
    </g>
</svg>