<?xml version="1.0" encoding="UTF-8"?>
<svg width="119px" height="84px" viewBox="0 0 119 84" version="1.1" xmlns="http://www.w3.org/2000/svg" xmlns:xlink="http://www.w3.org/1999/xlink">
    <!-- Generator: Sketch 54.1 (76490) - https://sketchapp.com -->
    <title>Logo / Black</title>
    <desc>Created with Sketch.</desc>
    <g id="Page-1" stroke="none" stroke-width="1" fill="none" fill-rule="evenodd">
        <g id="Assets" transform="translate(-403.000000, -75.000000)" fill="#000000">
            <path d="M403,75 L522,75 L522,135.067485 L403,135.067485 L403,75 Z M433.300315,131.166754 L439.370038,112.499624 L435.385946,112.499624 L432.605104,121.458777 L431.187944,127.315656 L431.107728,127.315656 L429.63709,121.458777 L426.856248,112.499624 L422.738463,112.499624 L428.754708,131.166754 L433.300315,131.166754 Z M448.621685,131.166754 L448.621685,127.930762 L446.215187,127.930762 L446.215187,115.735617 L448.621685,115.735617 L448.621685,112.499624 L439.744382,112.499624 L439.744382,115.735617 L442.15088,115.735617 L442.15088,127.930762 L439.744382,127.930762 L439.744382,131.166754 L448.621685,131.166754 Z M462.525896,131.166754 L465.948471,131.166754 L465.948471,120.76344 L458.595282,120.76344 L458.595282,124.159895 L462.071335,124.159895 L462.071335,125.095926 C462.071335,126.9145 460.440264,127.877274 458.40811,127.877274 C455.894657,127.877274 454.263586,126.433113 454.263586,123.330839 L454.263586,120.33554 C454.263586,117.233266 455.894657,115.789104 458.40811,115.789104 C460.573959,115.789104 461.72373,116.965829 462.285246,118.409991 L465.600865,116.511185 C464.210444,113.649605 461.72373,112.178699 458.40811,112.178699 C453.354465,112.178699 449.958629,115.628642 449.958629,121.913421 C449.958629,128.171456 453.327726,131.487679 457.605944,131.487679 C460.413525,131.487679 462.124813,130.070261 462.392201,128.198199 L462.525896,128.198199 L462.525896,131.166754 Z M476.055762,131.487679 C481.002452,131.487679 484.264594,128.171456 484.264594,121.833189 C484.264594,115.494923 481.002452,112.178699 476.055762,112.178699 C471.109072,112.178699 467.84693,115.494923 467.84693,121.833189 C467.84693,128.171456 471.109072,131.487679 476.055762,131.487679 Z M476.055762,127.877274 C473.622525,127.877274 472.151888,126.192419 472.151888,123.223864 L472.151888,120.442515 C472.151888,117.47396 473.622525,115.789104 476.055762,115.789104 C478.488999,115.789104 479.959637,117.47396 479.959637,120.442515 L479.959637,123.223864 C479.959637,126.192419 478.488999,127.877274 476.055762,127.877274 Z M490.387794,124.320357 L493.302331,124.320357 L496.564473,131.166754 L501.083341,131.166754 L497.420116,123.83897 C499.69292,122.98317 500.815952,120.97739 500.815952,118.463478 C500.815952,114.906561 498.623365,112.499624 495.174052,112.499624 L486.323487,112.499624 L486.323487,131.166754 L490.387794,131.166754 L490.387794,124.320357 Z M490.387794,120.897159 L490.387794,116.029798 L494.666013,116.029798 C495.869262,116.029798 496.61795,116.671648 496.61795,117.875116 L496.61795,119.05184 C496.61795,120.255309 495.869262,120.897159 494.666013,120.897159 L490.387794,120.897159 Z M411.681941,159 C406.655035,159 403.419632,155.790751 403.419632,149.479229 C403.419632,143.167706 406.655035,139.69102 411.681941,139.69102 C415.104516,139.69102 417.297103,141.081695 418.660786,144.076993 L415.157994,145.895568 C414.676695,144.344431 413.687356,143.301425 411.681941,143.301425 C409.302182,143.301425 407.724589,144.906049 407.724589,147.847861 L407.724589,150.843159 C407.724589,153.784971 409.302182,155.389595 411.681941,155.389595 C413.687356,155.389595 414.837128,154.132639 415.398644,152.608246 L418.714263,154.533796 C417.323842,157.368632 415.104516,159 411.681941,159 Z M424.275948,151.832678 L424.275948,158.679075 L420.21164,158.679075 L420.21164,140.011945 L429.062205,140.011945 C432.511518,140.011945 434.704105,142.418882 434.704105,145.975799 C434.704105,148.48971 433.581073,150.495491 431.308269,151.351291 L434.971494,158.679075 L430.452626,158.679075 L427.190484,151.832678 L424.275948,151.832678 Z M424.275948,148.409479 L428.554166,148.409479 C429.757415,148.409479 430.506103,147.767629 430.506103,146.564161 L430.506103,145.387437 C430.506103,144.183968 429.757415,143.542119 428.554166,143.542119 L424.275948,143.542119 L424.275948,148.409479 Z M444.116186,159 C439.169496,159 435.907354,155.683776 435.907354,149.34551 C435.907354,143.007244 439.169496,139.69102 444.116186,139.69102 C449.062877,139.69102 452.325018,143.007244 452.325018,149.34551 C452.325018,155.683776 449.062877,159 444.116186,159 Z M444.116186,155.389595 C446.549423,155.389595 448.020061,153.70474 448.020061,150.736185 L448.020061,147.954836 C448.020061,144.986281 446.549423,143.301425 444.116186,143.301425 C441.682949,143.301425 440.212312,144.986281 440.212312,147.954836 L440.212312,150.736185 C440.212312,153.70474 441.682949,155.389595 444.116186,155.389595 Z M460.319939,159 C457.057798,159 454.838472,157.743044 453.23414,155.977957 L455.908026,153.27684 C457.164753,154.694258 458.769085,155.416339 460.587328,155.416339 C462.566004,155.416339 463.528603,154.533796 463.528603,153.169865 C463.528603,152.153603 463.100781,151.404778 461.362755,151.164084 L459.517773,150.923391 C455.58716,150.41526 453.795656,148.48971 453.795656,145.360693 C453.795656,142.017726 456.416065,139.69102 460.801239,139.69102 C463.60882,139.69102 465.747929,140.627051 467.272045,142.311907 L464.571419,145.039768 C463.689036,143.996762 462.485787,143.274681 460.560589,143.274681 C458.742346,143.274681 457.859964,143.970018 457.859964,145.093256 C457.859964,146.376955 458.528435,146.858342 460.07929,147.099036 L461.924271,147.393217 C465.747929,148.008323 467.592911,149.719922 467.592911,152.929171 C467.592911,156.512832 464.972502,159 460.319939,159 Z M475.293704,159 C472.031563,159 469.812237,157.743044 468.207905,155.977957 L470.881791,153.27684 C472.138518,154.694258 473.74285,155.416339 475.561093,155.416339 C477.539769,155.416339 478.502368,154.533796 478.502368,153.169865 C478.502368,152.153603 478.074547,151.404778 476.33652,151.164084 L474.491538,150.923391 C470.560925,150.41526 468.769421,148.48971 468.769421,145.360693 C468.769421,142.017726 471.38983,139.69102 475.775004,139.69102 C478.582585,139.69102 480.721694,140.627051 482.24581,142.311907 L479.545184,145.039768 C478.662802,143.996762 477.459553,143.274681 475.534354,143.274681 C473.716111,143.274681 472.833729,143.970018 472.833729,145.093256 C472.833729,146.376955 473.5022,146.858342 475.053055,147.099036 L476.898036,147.393217 C480.721694,148.008323 482.566676,149.719922 482.566676,152.929171 C482.566676,156.512832 479.946267,159 475.293704,159 Z M488.663138,158.679075 L484.59883,158.679075 L484.59883,140.011945 L496.978925,140.011945 L496.978925,143.62235 L488.663138,143.62235 L488.663138,147.687398 L495.748937,147.687398 L495.748937,151.271059 L488.663138,151.271059 L488.663138,158.679075 Z M507.059478,158.679075 L498.182174,158.679075 L498.182174,155.443083 L500.588672,155.443083 L500.588672,143.247938 L498.182174,143.247938 L498.182174,140.011945 L507.059478,140.011945 L507.059478,143.247938 L504.65298,143.247938 L504.65298,155.443083 L507.059478,155.443083 L507.059478,158.679075 Z M521.846071,143.62235 L516.792425,143.62235 L516.792425,158.679075 L512.728117,158.679075 L512.728117,143.62235 L507.674472,143.62235 L507.674472,140.011945 L521.846071,140.011945 L521.846071,143.62235 Z" id="Logo-/-Black"></path>
        </g>
    </g>
</svg>